<svg xmlns="http://www.w3.org/2000/svg" width="43.783" height="36.794" viewBox="0 0 43.783 36.794"><path d="M20.76,3.265a1.464,1.464,0,0,0-2.006.5l-5.725,9.547H4.668a3.441,3.441,0,0,0-2.855,1.464,4.5,4.5,0,0,0-.5,4.041L6.938,36.942a4.173,4.173,0,0,0,3.924,2.723h24.16a4.173,4.173,0,0,0,3.939-2.723l5.623-18.2a4.5,4.5,0,0,0-.512-3.968,3.441,3.441,0,0,0-2.855-1.464H32.854L27.129,3.777a1.464,1.464,0,1,0-2.5,1.464l4.8,8.068H16.455l4.817-8.039A1.464,1.464,0,0,0,20.76,3.265ZM31.185,16.238,33.4,19.913a1.464,1.464,0,1,0,2.5-1.464l-1.245-2.211h6.618a.542.542,0,0,1,.5.2,1.669,1.669,0,0,1,0,1.464L36.12,36.078a1.318,1.318,0,0,1-1.142.659H10.862a1.318,1.318,0,0,1-1.1-.659l-5.652-18.2a1.669,1.669,0,0,1,0-1.464.542.542,0,0,1,.556-.176h6.56l-1.3,2.182a1.464,1.464,0,0,0,2.5,1.464l2.27-3.646Z" transform="translate(-1.047 -2.871)" fill="#3c3b4c"/><path d="M10.464,20.928H28.035a1.464,1.464,0,1,0,0-2.928H10.464a1.464,1.464,0,1,0,0,2.928Z" transform="translate(2.646 6.422)" fill="#3c3b4c"/></svg>