<svg xmlns="http://www.w3.org/2000/svg" width="45.443" height="36.755" viewBox="0 0 45.443 36.755">
  <path id="FontAwsome_car-alt_" data-name="FontAwsome (car-alt)" d="M39.7,77.425l-1.017-2.543-1.8-4.51A10.088,10.088,0,0,0,27.469,64H15.974a10.088,10.088,0,0,0-9.412,6.372l-1.8,4.51L3.742,77.425A5.78,5.78,0,0,0,0,82.825V87.17a5.745,5.745,0,0,0,1.448,3.795v4.894a2.9,2.9,0,0,0,2.9,2.9h2.9a2.9,2.9,0,0,0,2.9-2.9v-2.9h23.17v2.9a2.9,2.9,0,0,0,2.9,2.9h2.9a2.9,2.9,0,0,0,2.9-2.9V90.965a5.742,5.742,0,0,0,1.448-3.795V82.825A5.78,5.78,0,0,0,39.7,77.425Zm-27.761-4.9a4.345,4.345,0,0,1,4.034-2.731H27.469A4.345,4.345,0,0,1,31.5,72.523l1.8,4.51H10.137Zm-4.7,14.629a2.887,2.887,0,1,1,0-5.774c1.738,0,4.344,2.6,4.344,4.331S8.978,87.152,7.241,87.152Zm28.962,0c-1.738,0-4.344.289-4.344-1.444s2.607-4.331,4.344-4.331a2.887,2.887,0,1,1,0,5.774Z" transform="translate(1 -63)" fill="none" stroke="#3c3b4c" stroke-width="2"/>
</svg>
