<svg viewBox="0 0 36.557 36.544" height="36.544" width="36.557" xmlns="http://www.w3.org/2000/svg">
  <path fill="#61D273" transform="translate(-3.364 -3.375)" d="M35.705,39.919h-.239c-27.62-1.588-31.54-24.892-32.089-32a4.217,4.217,0,0,1,3.879-4.54H15a2.811,2.811,0,0,1,2.615,1.77L19.752,10.4a2.811,2.811,0,0,1-.618,3.036L16.14,16.461A13.17,13.17,0,0,0,26.793,27.143l3.05-3.022a2.811,2.811,0,0,1,3.05-.576l5.3,2.123a2.811,2.811,0,0,1,1.73,2.614V35.7a4.217,4.217,0,0,1-4.217,4.217ZM7.594,6.186A1.406,1.406,0,0,0,6.189,7.592V7.7c.647,8.321,4.793,28,29.433,29.4a1.406,1.406,0,0,0,1.49-1.321V28.281l-5.3-2.123-4.034,4.005-.675-.085C14.877,28.547,13.218,16.318,13.218,16.192l-.085-.675,3.992-4.034-2.109-5.3Z" id="phone"></path>
</svg>