<svg xmlns="http://www.w3.org/2000/svg" width="49.919" height="37.439" viewBox="0 0 49.919 37.439">
  <g id="card-checklist" transform="translate(0 -4.5)">
    <path id="Path_2128" data-name="Path 2128" d="M45.239,7.62H4.68A1.56,1.56,0,0,0,3.12,9.18V37.259a1.56,1.56,0,0,0,1.56,1.56H45.239a1.56,1.56,0,0,0,1.56-1.56V9.18A1.56,1.56,0,0,0,45.239,7.62ZM4.68,4.5A4.68,4.68,0,0,0,0,9.18V37.259a4.68,4.68,0,0,0,4.68,4.68H45.239a4.68,4.68,0,0,0,4.68-4.68V9.18a4.68,4.68,0,0,0-4.68-4.68Z" transform="translate(0 0)" fill="#61d273" fill-rule="evenodd"/>
    <path id="Path_2129" data-name="Path 2129" d="M19.535,13.246a1.56,1.56,0,0,1,1.56-1.56h15.6a1.56,1.56,0,0,1,0,3.12h-15.6A1.56,1.56,0,0,1,19.535,13.246Zm-4.667-2.664a1.56,1.56,0,0,1,0,2.209l-4.68,4.68a1.56,1.56,0,0,1-2.209,0l-1.56-1.56A1.562,1.562,0,0,1,8.627,13.7l.455.459,3.576-3.579a1.56,1.56,0,0,1,2.209,0Zm4.667,15.143a1.56,1.56,0,0,1,1.56-1.56h15.6a1.56,1.56,0,0,1,0,3.12h-15.6A1.56,1.56,0,0,1,19.535,25.725Zm-4.667-2.664a1.56,1.56,0,0,1,0,2.209l-4.68,4.68a1.56,1.56,0,0,1-2.209,0l-1.56-1.56a1.562,1.562,0,0,1,2.209-2.209l.455.459,3.576-3.579a1.56,1.56,0,0,1,2.209,0Z" transform="translate(2.305 2.174)" fill="#61d273" fill-rule="evenodd"/>
  </g>
</svg>
