<svg viewBox="0 0 41.573 37.416" height="37.416" width="41.573" xmlns="http://www.w3.org/2000/svg">
  <g transform="translate(-3 -4.5)" id="bx-history">
    <path fill="#61d273" transform="translate(5.787 2.893)" d="M18,12V22.393H28.393V18.236H22.157V12Z" data-name="Path 2134" id="Path_2134"></path>
    <path fill="#61d273" transform="translate(0)" d="M43.1,15.926A18.725,18.725,0,0,0,29.636,4.88a18.9,18.9,0,0,0-7.537,0A18.694,18.694,0,0,0,7.157,23.208l0,.053H3l6.236,8.262,6.236-8.263H11.317l0-.051A14.46,14.46,0,0,1,13.8,15.075a14.553,14.553,0,0,1,26.324,5.2,14.793,14.793,0,0,1,0,5.87A14.571,14.571,0,0,1,36.156,33.5a14.671,14.671,0,0,1-4.626,3.121,14.509,14.509,0,0,1-2.73.848,14.793,14.793,0,0,1-5.867,0,14.46,14.46,0,0,1-5.2-2.188A14.688,14.688,0,0,1,15.579,33.5l-2.939,2.939A18.712,18.712,0,0,0,43.1,15.926Z" data-name="Path 2135" id="Path_2135"></path>
  </g>
</svg>
