<svg xmlns="http://www.w3.org/2000/svg" width="48.734" height="41.772" viewBox="0 0 48.734 41.772">
  <g id="Group_3892" data-name="Group 3892" transform="translate(-537.766 -1054)">
    <g id="user" transform="translate(556.766 1063.619)">
      <g id="Group_8" data-name="Group 8" transform="translate(0 0)">
        <path id="Path_1" data-name="Path 1" d="M19.359,14.662a11.3,11.3,0,0,0-4.309-2.7,6.556,6.556,0,1,0-7.419,0A11.358,11.358,0,0,0,0,22.681H1.772a9.569,9.569,0,1,1,19.137,0h1.772A11.267,11.267,0,0,0,19.359,14.662ZM11.34,11.341a4.784,4.784,0,1,1,4.784-4.784A4.79,4.79,0,0,1,11.34,11.341Z" transform="translate(0 0)" fill="#61d273" stroke="#61d273" stroke-width="1"/>
      </g>
    </g>
    <g id="identification" transform="translate(535.516 1049.5)">
      <path id="Path_2125" data-name="Path 2125" d="M47.5,7.981v34.81H5.731V7.981H47.5m0-3.481H5.731A3.481,3.481,0,0,0,2.25,7.981v34.81a3.481,3.481,0,0,0,3.481,3.481H47.5a3.481,3.481,0,0,0,3.481-3.481V7.981A3.481,3.481,0,0,0,47.5,4.5Z" transform="translate(0)" fill="#61d273"/>
      <path id="Path_2126" data-name="Path 2126" d="M6.75,11.25H18.934v3.481H6.75Z" transform="translate(2.462 3.693)" fill="#61d273"/>
      <path id="Path_2127" data-name="Path 2127" d="M6.75,15.75h6.962v3.481H6.75Z" transform="translate(2.462 6.155)" fill="#61d273"/>
    </g>
  </g>
</svg>
