<svg xmlns="http://www.w3.org/2000/svg" width="94.5" height="94.5" viewBox="0 0 94.5 94.5">
  <g id="Group_3903" data-name="Group 3903" transform="translate(-1765.118 -462)">
    <circle id="Oval_2" data-name="Oval 2" cx="47.25" cy="47.25" r="47.25" transform="translate(1765.118 462)" fill="#f5a623"/>
    <g id="support_2_" data-name="support (2)" transform="translate(1785.79 488.602)">
      <path id="Shape" d="M37.561,35.027a1.339,1.339,0,0,1-.922-.374l-6-5.481H4.15A3.975,3.975,0,0,1,0,25.41V3.762A3.975,3.975,0,0,1,4.15,0H42.581a3.976,3.976,0,0,1,4.152,3.762V25.41a3.976,3.976,0,0,1-4.152,3.762H38.892v4.646A1.261,1.261,0,0,1,37.561,35.027Zm-.615-23.366A3.68,3.68,0,0,0,33.1,15.143a3.861,3.861,0,0,0,7.686,0A3.68,3.68,0,0,0,36.945,11.661Zm-13.424,0a3.682,3.682,0,0,0-3.845,3.483,3.728,3.728,0,0,0,3.845,3.485,3.727,3.727,0,0,0,3.843-3.485A3.726,3.726,0,0,0,23.521,11.661Zm-13.478,0A3.726,3.726,0,0,0,6.2,15.143a3.727,3.727,0,0,0,3.843,3.485,3.681,3.681,0,0,0,3.843-3.485A3.68,3.68,0,0,0,10.043,11.661Z" transform="translate(9.276 0)" fill="#fff"/>
      <path id="Shape-2" data-name="Shape" d="M6.919,7.386V0h-4.2A2.616,2.616,0,0,0,0,2.462V16.677a2.567,2.567,0,0,0,2.716,2.555H5.126V22.3a.859.859,0,0,0,.871.79.893.893,0,0,0,.615-.232l3.946-3.577H27.979A2.616,2.616,0,0,0,30.7,16.816v-3.53H13.427C9.84,13.286,6.919,10.638,6.919,7.386Z" transform="translate(0 18.117)" fill="#fff"/>
    </g>
  </g>
</svg>
