<svg viewBox="0 0 28.885 42.142" height="42.142" width="28.885" xmlns="http://www.w3.org/2000/svg">
  <path fill="#61D273" transform="translate(-131.789 -2177.074)" d="M154.485,2189.717V2185.5c0-4.736-4.665-9.47-9.978-8.227a8.919,8.919,0,0,0-6.527,8.834v3.608h-2.064a4.17,4.17,0,0,0-4.126,4.214V2215a4.171,4.171,0,0,0,4.126,4.214h20.632a4.171,4.171,0,0,0,4.127-4.214v-21.071a4.17,4.17,0,0,0-4.127-4.214Zm-12.38-4.215a4.176,4.176,0,0,1,4.127-4.214,4.321,4.321,0,0,1,4.127,4.214v4.215h-8.253Zm14.443,27.393a2.085,2.085,0,0,1-2.063,2.107H137.98a2.086,2.086,0,0,1-2.064-2.107v-16.857a2.086,2.086,0,0,1,2.064-2.107h16.505a2.084,2.084,0,0,1,2.063,2.107Z" id="Password"></path>
</svg>