<svg xmlns="http://www.w3.org/2000/svg" width="94.5" height="94.5" viewBox="0 0 94.5 94.5">
  <g id="Group_3904" data-name="Group 3904" transform="translate(-1882 -462)">
    <circle id="Oval_2_Copy" data-name="Oval 2 Copy" cx="47.25" cy="47.25" r="47.25" transform="translate(1882 462)" fill="#50e3c2"/>
    <g id="telephone-handle-silhouette" transform="translate(1908.579 488.578)">
      <path id="Shape" d="M41.253,32.034q-.175-.529-2.231-1.556-.557-.324-1.585-.881t-1.865-1.028q-.838-.47-1.571-.91-.117-.088-.734-.514a8.252,8.252,0,0,0-1.043-.631,1.922,1.922,0,0,0-.837-.205,2.437,2.437,0,0,0-1.467.837,14.3,14.3,0,0,0-1.615,1.821,17.7,17.7,0,0,1-1.556,1.82,2.238,2.238,0,0,1-1.351.837,2,2,0,0,1-.661-.146c-.264-.1-.465-.182-.6-.249s-.371-.206-.7-.412-.519-.318-.558-.338a30.856,30.856,0,0,1-6.9-5.109,30.84,30.84,0,0,1-5.109-6.9q-.029-.059-.338-.558t-.411-.7a6.364,6.364,0,0,1-.249-.6,1.987,1.987,0,0,1-.147-.661,2.238,2.238,0,0,1,.837-1.351,17.684,17.684,0,0,1,1.82-1.556,14.29,14.29,0,0,0,1.82-1.615,2.437,2.437,0,0,0,.837-1.468,1.917,1.917,0,0,0-.205-.837A8.162,8.162,0,0,0,14.2,8.074q-.426-.617-.514-.734-.44-.734-.91-1.571T11.745,3.9q-.558-1.027-.881-1.585Q9.837.265,9.308.088A1.644,1.644,0,0,0,8.692,0a9.673,9.673,0,0,0-2.07.294A11.628,11.628,0,0,0,4.61.91Q3.142,1.527,1.5,4.492A11.384,11.384,0,0,0,0,9.953a11.339,11.339,0,0,0,.1,1.542A12.668,12.668,0,0,0,.47,13.183q.264.939.425,1.395t.6,1.63q.44,1.175.528,1.439a26.6,26.6,0,0,0,2.437,5.139,43.537,43.537,0,0,0,6.327,7.767,43.557,43.557,0,0,0,7.767,6.328A26.637,26.637,0,0,0,23.7,39.317q.264.088,1.438.529t1.63.6q.455.162,1.394.426a12.781,12.781,0,0,0,1.689.368,10.892,10.892,0,0,0,7-1.4q2.965-1.644,3.581-3.113a11.564,11.564,0,0,0,.617-2.011,9.653,9.653,0,0,0,.294-2.07A1.637,1.637,0,0,0,41.253,32.034Z" transform="translate(0)" fill="#fff"/>
    </g>
  </g>
</svg>
