<svg xmlns="http://www.w3.org/2000/svg" xmlns:xlink="http://www.w3.org/1999/xlink" width="78.661" height="78.661" viewBox="0 0 78.661 78.661">
  <defs>
    <filter id="plus" x="0" y="0" width="78.661" height="78.661" filterUnits="userSpaceOnUse">
      <feOffset dy="3" input="SourceAlpha"/>
      <feGaussianBlur stdDeviation="3" result="blur"/>
      <feFlood flood-color="#61d273" flood-opacity="0.471"/>
      <feComposite operator="in" in2="blur"/>
      <feComposite in="SourceGraphic"/>
    </filter>
  </defs>
  <g id="Group_7" data-name="Group 7" transform="translate(9 6)">
    <ellipse id="Ellipse_1" data-name="Ellipse 1" cx="20.22" cy="20.22" rx="20.22" ry="20.22" transform="translate(9.515 9.515)" fill="#fff"/>
    <g transform="matrix(1, 0, 0, 1, -9, -6)" filter="url(#plus)">
      <path id="plus-2" data-name="plus" d="M30.331,0A30.331,30.331,0,1,0,60.661,30.331,30.365,30.365,0,0,0,30.331,0ZM44.912,32.664H32.664V45.5A2.333,2.333,0,0,1,28,45.5V32.664H15.749a2.333,2.333,0,0,1,0-4.666H28V16.332a2.333,2.333,0,0,1,4.666,0V28H44.912a2.333,2.333,0,0,1,0,4.666Z" transform="translate(9 6)" fill="#61d273"/>
    </g>
  </g>
</svg>
