<svg xmlns="http://www.w3.org/2000/svg" width="46.438" height="40.633" viewBox="0 0 46.438 40.633">
  <g id="store-line" transform="translate(-2 -4)">
    <path id="Path_2132" data-name="Path 2132" d="M37.926,33.609H20.512V22h-2.9V33.609H8.9V22H6V33.609a2.9,2.9,0,0,0,2.9,2.9H37.926a2.9,2.9,0,0,0,2.9-2.9V22h-2.9Z" transform="translate(1.805 8.121)" fill="#61d273"/>
    <path id="Path_2133" data-name="Path 2133" d="M48.133,17.452,42.212,5.611A2.9,2.9,0,0,0,39.614,4H10.823a2.9,2.9,0,0,0-2.6,1.611L2.3,17.452A2.9,2.9,0,0,0,2,18.758v4.47a2.9,2.9,0,0,0,.668,1.858A6.777,6.777,0,0,0,7.8,27.407a6.85,6.85,0,0,0,4.354-1.553,6.864,6.864,0,0,0,8.707,0,6.864,6.864,0,0,0,8.707,0,6.864,6.864,0,0,0,8.707,0,6.85,6.85,0,0,0,9.476-.755,2.9,2.9,0,0,0,.682-1.858V18.758a2.9,2.9,0,0,0-.3-1.306Zm-5.5,7.053a3.889,3.889,0,0,1-3.164-1.64l-1.19-1.625L37.1,22.865a3.933,3.933,0,0,1-6.342,0l-1.19-1.625L28.4,22.865a3.933,3.933,0,0,1-6.342,0l-1.19-1.625L19.69,22.865a3.933,3.933,0,0,1-6.342,0l-1.19-1.625-1.19,1.625A3.889,3.889,0,0,1,7.8,24.505a3.831,3.831,0,0,1-2.9-1.277v-4.47L10.823,6.9H39.614l5.921,11.842v4.441a3.875,3.875,0,0,1-2.9,1.321Z" transform="translate(0 0)" fill="#61d273"/>
  </g>
</svg>
