<svg xmlns="http://www.w3.org/2000/svg" xmlns:xlink="http://www.w3.org/1999/xlink" width="29.847" height="37.594" viewBox="0 0 29.847 37.594">
  <defs>
    <clipPath id="clip-path">
      <rect width="29.847" height="37.594" fill="none"/>
    </clipPath>
  </defs>
  <g id="Repeat_Grid_2" data-name="Repeat Grid 2" clip-path="url(#clip-path)">
    <g transform="translate(-1972.713 -122.514)">
      <path id="Path_2092" data-name="Path 2092" d="M47.407,21.343l-.089-.04c-.213-.1-.428-.189-.648-.274q-.359-.144-.728-.267c-.194-.064-.39-.123-.588-.182-.3-.087-.606-.166-.919-.236-.106-.022-.215-.043-.323-.062l-.074-.014c-.185-.036-.371-.068-.559-.1l-.054-.008H43.42l-.054-.007c-.156-.023-.311-.045-.473-.064l-.55-.045a14.877,14.877,0,0,0-2.043.006l-.2.016-.091.007-.228.021c-.209.022-.417.051-.625.084l-.061.008c-.142.023-.284.05-.424.076-.155.028-.309.058-.462.092-.3.067-.591.143-.876.226-.227.065-.451.137-.662.209l-.146.053c-.447.158-.891.34-1.321.539l-.115.055,0,0a14.582,14.582,0,0,0-8.269,13.1c0,.128.009.253.016.379l.038.882H55.816l.039-.872c.009-.129.016-.257.016-.389A14.562,14.562,0,0,0,47.407,21.343ZM28.243,34.377a13.147,13.147,0,0,1,7.515-11.686l.145-.057.017-.016c.353-.161.716-.308,1.085-.438l.117-.042c.2-.07.4-.133.609-.192.259-.076.523-.144.787-.2.137-.029.274-.057.415-.083.112-.021.223-.042.336-.06l.055-.01c.2-.032.407-.061.609-.083l.464-.04a12.452,12.452,0,0,1,1.892,0l.451.038c.111.013.223.028.358.047l.162.023c.17.025.339.054.509.086l.079.015c.1.018.191.036.281.055.279.061.554.133.826.212.18.053.359.106.533.165q.332.111.656.24t.616.262l.035.016a13.14,13.14,0,0,1,7.653,11.751H28.243Zm9.6-17.981c.106.045.216.084.326.123l.231.084c.089.034.178.067.269.1a8.991,8.991,0,0,0,2.63.41h.072a9,9,0,0,0,.914-.047c.1-.01.2-.026.3-.043l.222-.033c.125-.016.25-.035.38-.06.089-.018.176-.042.262-.065l.243-.062c.12-.029.24-.058.358-.1.074-.023.146-.05.218-.077l.2-.07c.139-.048.279-.1.42-.157.055-.023.108-.049.16-.075l.063-.031c.192-.086.384-.174.574-.276l.123-.074c.213-.121.425-.245.64-.392.111-.075.218-.16.323-.243l.363-.282a8.985,8.985,0,0,0,3.289-6.9l0-.075a9.049,9.049,0,0,0-18.08-.57l-.008.118c-.011.15-.021.3-.021.453A9.036,9.036,0,0,0,37.841,16.4ZM33.748,7.7l.008-.128a7.632,7.632,0,0,1,15.249.417l0,.075a7.635,7.635,0,0,1-2.786,5.879l-.337.257c-.075.061-.151.122-.245.187-.17.116-.35.22-.533.324l-.1.062c-.153.082-.314.155-.482.23l-.188.091c-.108.045-.221.084-.333.123l-.234.084c-.045.017-.091.035-.136.049-.087.027-.177.048-.265.07l-.283.072c-.061.016-.121.033-.175.045-.094.018-.191.031-.287.045l-.27.04c-.065.011-.131.023-.2.03-.236.025-.474.038-.715.04h-.068a7.6,7.6,0,0,1-2.268-.345c-.063-.02-.125-.045-.187-.068l-.267-.1c-.083-.029-.165-.058-.245-.091a7.625,7.625,0,0,1-4.662-7.035C33.731,7.936,33.74,7.818,33.748,7.7Z" transform="translate(1946.289 123.912)" fill="#3c3b4c" stroke="#3c3b4c" stroke-linecap="round" stroke-linejoin="round" stroke-width="0.8"/>
    </g>
  </g>
</svg>
